<svg xmlns="http://www.w3.org/2000/svg" enable-background="new 0 0 512 512" viewBox="0 0 512 512" id="local-seo">
  <linearGradient id="a" x1="144.858" x2="401.221" y1="409.865" y2="153.502" gradientUnits="userSpaceOnUse">
    <stop offset="0" stop-color="#0095da"></stop>
    <stop offset=".5" stop-color="#00aeee"></stop>
    <stop offset="1" stop-color="#2bc4f3"></stop>
  </linearGradient>
  <path fill="url(#a)" d="M452.973,496.227c-16.84,16.839-44.519,15.439-59.559-3.04l-74.917-92.157l-0.76,0.761c-3.04,3.039-8,3.039-11.04,0l-14.919-14.919c10.319-6.48,19.959-14.201,28.799-23.04c8.88-8.88,16.519-18.559,22.959-28.799l14.959,14.959c3.04,3.04,3.04,8,0,11.04l-0.72,0.72l92.157,74.958C468.372,451.709,469.812,479.428,452.973,496.227z M322.537,144.64c-3.32,12.199-8.559,24.599-15.08,36.758c30.279,47.438,24.719,111.275-16.679,152.674c-47.838,47.799-125.636,47.799-173.475,0c-41.438-41.438-46.998-105.356-16.599-152.795c-6.44-12.2-11.64-24.639-14.959-36.839c-53.678,61.598-51.198,155.075,7.44,213.752c61.238,61.238,160.474,61.238,221.713,0C373.455,299.594,376.015,206.237,322.537,144.64z M193.032,193.443l-4.988-13.679c-0.43-1.176-1.383-2.082-2.578-2.453c-3.457-1.062-6.906-2.492-10.25-4.238c-1.098-0.57-2.406-0.605-3.539-0.078l-13.203,6.14l-15.484-15.484l6.14-13.203c0.527-1.129,0.496-2.437-0.078-3.539c-1.734-3.32-3.168-6.777-4.254-10.273c-0.371-1.191-1.277-2.141-2.449-2.57l-13.667-4.984v-21.894l13.679-4.988c1.172-0.426,2.078-1.375,2.449-2.566c1.105-3.547,2.531-6.996,4.246-10.254c0.582-1.105,0.613-2.422,0.086-3.555l-6.152-13.199l15.484-15.484l13.199,6.152c1.133,0.527,2.445,0.504,3.555-0.086c3.32-1.746,6.761-3.172,10.238-4.242c1.195-0.371,2.148-1.277,2.578-2.453l4.988-13.679h21.906l4.988,13.679c0.426,1.168,1.375,2.074,2.562,2.445c3.578,1.121,7.023,2.551,10.238,4.246c1.102,0.586,2.422,0.617,3.555,0.094l13.218-6.148l15.484,15.48l-6.152,13.214c-0.527,1.133-0.496,2.445,0.086,3.551c1.746,3.324,3.176,6.769,4.242,10.234c0.371,1.199,1.277,2.152,2.453,2.582l13.679,4.988v21.89l-13.679,4.988c-1.176,0.43-2.082,1.383-2.453,2.582c-1.07,3.473-2.496,6.918-4.242,10.238c-0.582,1.105-0.613,2.418-0.086,3.551l6.14,13.203l-15.472,15.484l-13.199-6.152c-1.137-0.527-2.449-0.5-3.555,0.086c-3.254,1.711-6.703,3.141-10.254,4.25c-1.191,0.371-2.141,1.273-2.566,2.445l-4.988,13.679H193.032z M203.981,166.471c26.655,0,48.338-21.679,48.338-48.326c0-26.655-21.683-48.338-48.338-48.338c-26.648,0-48.326,21.683-48.326,48.338C155.654,144.792,177.333,166.471,203.981,166.471z M244.319,118.144c0-22.241-18.097-40.338-40.338-40.338c-22.238,0-40.327,18.097-40.327,40.338c0,22.238,18.089,40.327,40.327,40.327C226.222,158.471,244.319,140.382,244.319,118.144z M89.65,115.625C90.489,53.139,142.338,3.158,205.525,4.007c63.187,0.85,113.674,52.205,112.834,114.692c-1.027,76.415-115.298,176.95-115.298,176.95S88.622,192.04,89.65,115.625z M190.235,201.442h27.503c1.68,0,3.183-1.051,3.758-2.629l5.281-14.484c2.703-0.93,5.351-2.027,7.906-3.273l13.972,6.511c1.519,0.711,3.332,0.391,4.519-0.797l19.433-19.445c1.187-1.187,1.508-2.992,0.797-4.515l-6.504-13.976c1.27-2.586,2.367-5.234,3.281-7.91l14.48-5.277c1.578-0.574,2.629-2.078,2.629-3.758v-27.491c0-1.68-1.051-3.183-2.629-3.758l-14.48-5.277c-0.914-2.672-2.012-5.32-3.277-7.906l6.512-13.992c0.711-1.523,0.391-3.328-0.797-4.515l-19.445-19.433c-1.187-1.191-2.992-1.504-4.515-0.801l-13.988,6.504c-2.535-1.238-5.176-2.336-7.894-3.273l-5.281-14.484c-0.574-1.578-2.078-2.629-3.758-2.629h-27.503c-1.68,0-3.183,1.051-3.758,2.629l-5.281,14.48c-2.676,0.914-5.32,2.012-7.906,3.277l-13.972-6.511c-1.531-0.715-3.332-0.395-4.519,0.797l-19.445,19.445c-1.187,1.187-1.508,2.992-0.797,4.519l6.511,13.972c-1.246,2.559-2.344,5.203-3.273,7.906l-14.484,5.281c-1.578,0.574-2.629,2.078-2.629,3.758v27.491c0,1.68,1.051,3.183,2.629,3.758l14.472,5.281c0.922,2.68,2.019,5.332,3.277,7.914l-6.504,13.98c-0.711,1.523-0.391,3.328,0.797,4.515l19.445,19.445c1.184,1.187,2.996,1.512,4.515,0.797l13.98-6.504c2.594,1.266,5.238,2.359,7.902,3.269l5.281,14.48C187.051,200.392,188.555,201.442,190.235,201.442z"></path>
</svg>
